<svg width="78" height="78" viewBox="0 0 78 78" fill="none" xmlns="http://www.w3.org/2000/svg">
<circle cx="39" cy="39" r="39" fill="#89AC76" fill-opacity="0.14"/>
<path d="M37.9674 45.3584L32.6416 40.0327C32.2984 39.6895 31.7418 39.6895 31.3986 40.0328L31.3985 40.0327L24.2574 47.1746C24.0421 47.3899 23.9535 47.7015 24.0235 47.998C24.0935 48.2945 24.3121 48.5335 24.601 48.6298L28.178 49.822L29.3702 53.3991C29.4665 53.6881 29.7056 53.9065 30.0021 53.9765C30.2986 54.0465 30.6101 53.958 30.8255 53.7426L37.9674 46.6014C38.3106 46.2581 38.3106 45.7016 37.9674 45.3584Z" fill="#FFEC29"/>
<path d="M37.9673 45.3583L35.3045 42.6954L28.178 49.8219L29.3702 53.3989C29.4665 53.6879 29.7056 53.9064 30.0021 53.9763C30.2985 54.0463 30.6101 53.9578 30.8255 53.7424L37.9673 46.6012C38.3106 46.258 38.3106 45.7015 37.9673 45.3583Z" fill="#FFCB00"/>
<path d="M45.3583 40.0326L40.0326 45.3583C39.6893 45.7016 39.6893 46.2581 40.0326 46.6013L40.0326 46.6014L47.1745 53.7425C47.3899 53.9579 47.7014 54.0465 47.9979 53.9764C48.2944 53.9065 48.5335 53.6879 48.6298 53.399L49.822 49.822L53.399 48.6298C53.688 48.5335 53.9065 48.2944 53.9764 47.9979C54.0464 47.7014 53.9579 47.3899 53.7425 47.1745L46.6012 40.0326C46.258 39.6893 45.7015 39.6893 45.3583 40.0326Z" fill="#FFEC29"/>
<path d="M45.3583 40.0326L42.6954 42.6954L49.8219 49.8219L53.399 48.6297C53.6879 48.5334 53.9064 48.2943 53.9764 47.9978C54.0464 47.7014 53.9579 47.3898 53.7425 47.1744L46.6012 40.0326C46.258 39.6893 45.7015 39.6893 45.3583 40.0326Z" fill="#FFCB00"/>
<path d="M50.9636 36.7483C51.2462 36.4191 51.2463 35.9328 50.9637 35.6035L49.9644 34.4389L50.5548 33.0228C50.7218 32.6223 50.5715 32.1599 50.201 31.9341L48.8909 31.1357L49.0151 29.6067C49.0502 29.1742 48.7644 28.7807 48.3422 28.6804L46.8498 28.326L46.4952 26.8331C46.395 26.4108 46.0007 26.1251 45.569 26.1601L44.0397 26.2843L43.2412 24.9741C43.0154 24.6035 42.5527 24.4534 42.1523 24.6203L40.7365 25.2111L39.5724 24.2119C39.2431 23.9294 38.7567 23.9294 38.4275 24.2119L37.2635 25.211L35.8476 24.6203C35.447 24.4532 34.9846 24.6035 34.7587 24.9741L33.9603 26.2843L32.431 26.1601C31.9984 26.1255 31.605 26.4108 31.5048 26.8331L31.1502 28.326L29.6577 28.6805C29.2356 28.7808 28.9497 29.1742 28.9849 29.6068L29.1091 31.1357L27.799 31.9341C27.4284 32.1599 27.2781 32.6224 27.4451 33.0229L28.0355 34.439L27.0362 35.6035C26.7537 35.9328 26.7537 36.4191 27.0363 36.7483L28.0355 37.9125L27.4452 39.3285C27.2782 39.729 27.4285 40.1914 27.799 40.4172L29.1091 41.2156L28.9849 42.7446C28.9498 43.1771 29.2356 43.5706 29.6578 43.6709L31.1502 44.0253L31.5048 45.5182C31.6051 45.9405 31.9985 46.2258 32.431 46.1912L33.9603 46.067L34.7588 47.3772C34.9846 47.7478 35.4471 47.898 35.8477 47.731L37.2635 47.1402L38.4276 48.1393C38.7568 48.4219 39.2432 48.4219 39.5724 48.1393L40.7365 47.1402L42.1523 47.731C42.5527 47.8979 43.0153 47.7478 43.2412 47.3772L44.0397 46.067L45.569 46.1912C46.0007 46.2262 46.395 45.9405 46.4952 45.5182L46.8498 44.0253L48.3422 43.6709C48.7644 43.5706 49.0502 43.1771 49.0151 42.7446L48.8909 41.2156L50.201 40.4172C50.5715 40.1914 50.7218 39.729 50.5548 39.3285L49.9644 37.9125L50.9636 36.7483Z" fill="#89AC76"/>
<path d="M39.5725 48.1393L40.7365 47.1402L42.1523 47.7309C42.5527 47.8979 43.0154 47.7478 43.2412 47.3772L44.0397 46.067L45.569 46.1912C46.0007 46.2262 46.395 45.9406 46.4952 45.5183L46.8498 44.0254L48.3422 43.6709C48.7644 43.5706 49.0503 43.1772 49.0151 42.7446L48.8909 41.2157L50.201 40.4173C50.5715 40.1915 50.7218 39.729 50.5548 39.3285L49.9645 37.9125L50.9636 36.7484C51.2462 36.4192 51.2462 35.9329 50.9637 35.6036L49.9645 34.439L50.5548 33.0229C50.7218 32.6225 50.5715 32.16 50.201 31.9342L48.8909 31.1358L49.0151 29.6068C49.0502 29.1743 48.7644 28.7808 48.3422 28.6805L46.8498 28.3261L46.4952 26.8332C46.395 26.4109 46.0007 26.1252 45.569 26.1602L44.0397 26.2844L43.2412 24.9743C43.0154 24.6036 42.5527 24.4536 42.1523 24.6205L40.7365 25.2112L39.5724 24.2119C39.4078 24.0707 39.2039 24 39 24V48.3512C39.2039 48.3512 39.4079 48.2806 39.5725 48.1393Z" fill="#89AC76"/>
<path d="M37.4371 42.4457L32.2594 37.2679C31.9161 36.9247 31.9161 36.3682 32.2594 36.025L34.9221 33.3622C35.2653 33.0189 35.8218 33.0189 36.1651 33.3622L38.0586 35.2556L42.3056 31.0087C42.6487 30.6654 43.2053 30.6654 43.5485 31.0087L46.2112 33.6714C46.5545 34.0146 46.5545 34.5711 46.2112 34.9143L38.6801 42.4457C38.3368 42.789 37.7803 42.7888 37.4371 42.4457Z" fill="#F5FAFA"/>
<path d="M46.2113 33.6715L43.5486 31.0088C43.2054 30.6655 42.6489 30.6655 42.3056 31.0088L39 34.3143V42.1257L46.2113 34.9144C46.5546 34.5712 46.5546 34.0147 46.2113 33.6715Z" fill="#E1EBF0"/>
</svg>
