<svg width="78" height="78" viewBox="0 0 78 78" fill="none" xmlns="http://www.w3.org/2000/svg">
<circle cx="39" cy="39" r="39" fill="#89AC76" fill-opacity="0.14"/>
<path opacity="0.4" d="M61.5 39C61.5 51.4264 51.4264 61.5 39 61.5C26.5736 61.5 16.5 51.4264 16.5 39C16.5 26.5736 26.5736 16.5 39 16.5C51.4264 16.5 61.5 26.5736 61.5 39Z" fill="white" stroke="black"/>
<path fill-rule="evenodd" clip-rule="evenodd" d="M52.9981 25.616L52.7568 28.7257C52.7377 28.9876 52.5675 29.2143 52.3214 29.3058C52.0752 29.3973 51.7983 29.3368 51.6127 29.151L50.9128 28.4505L46.2583 33.1113C45.5035 33.8644 44.2814 33.8644 43.5266 33.1113L41.3721 30.9559C41.1836 30.7674 40.8781 30.7674 40.6896 30.9559L33.6075 38.0409C33.2453 38.4034 32.7538 38.6072 32.2414 38.6072C31.7289 38.6072 31.2374 38.4034 30.8752 38.0409L29.6863 36.8514C29.4978 36.6633 29.1927 36.6633 29.0042 36.8514L26.647 39.2047C26.2693 39.5762 25.6635 39.5762 25.2858 39.2047C25.103 39.0253 25.0001 38.7799 25.0001 38.5238C25.0001 38.2677 25.103 38.0224 25.2858 37.8429L27.9794 35.1435C28.3415 34.7811 28.8329 34.5775 29.3452 34.5775C29.8576 34.5775 30.349 34.7811 30.7111 35.1435L32.2409 36.6743L39.6652 29.2495C40.0274 28.887 40.5187 28.6834 41.0311 28.6834C41.5435 28.6834 42.0348 28.887 42.397 29.2495L44.5504 31.4024C44.641 31.4931 44.7638 31.544 44.8919 31.544C45.0201 31.544 45.1429 31.4931 45.2335 31.4024L49.55 27.0839L48.8501 26.384C48.6649 26.1989 48.6048 25.9229 48.6962 25.6776C48.7877 25.4324 49.0138 25.263 49.2749 25.2443L52.3884 25.0015C52.5541 24.9907 52.7162 25.0521 52.8331 25.17C52.95 25.2878 53.0102 25.4504 52.9981 25.616Z" fill="#89AC76"/>
<path d="M32.241 51.0688H26.4482C25.915 51.0688 25.4828 51.5011 25.4828 52.0343C25.4828 52.5675 25.915 52.9998 26.4482 52.9998H32.241C32.7742 52.9998 33.2064 52.5675 33.2064 52.0343C33.2064 51.5011 32.7742 51.0688 32.241 51.0688Z" fill="#F0C419"/>
<path d="M41.8954 51.0688H36.1027C35.5695 51.0688 35.1372 51.5011 35.1372 52.0343C35.1372 52.5675 35.5695 52.9998 36.1027 52.9998H41.8954C42.4286 52.9998 42.8608 52.5675 42.8608 52.0343C42.8608 51.5011 42.4286 51.0688 41.8954 51.0688Z" fill="#F0C419"/>
<path d="M41.8954 49.1379H36.1027C35.5695 49.1379 35.1372 49.5702 35.1372 50.1034C35.1372 50.6366 35.5695 51.0688 36.1027 51.0688H41.8954C42.4286 51.0688 42.8608 50.6366 42.8608 50.1034C42.8608 49.5702 42.4286 49.1379 41.8954 49.1379Z" fill="#F3D55B"/>
<path d="M41.8954 47.207H36.1027C35.5695 47.207 35.1372 47.6393 35.1372 48.1725C35.1372 48.7057 35.5695 49.1379 36.1027 49.1379H41.8954C42.4286 49.1379 42.8608 48.7057 42.8608 48.1725C42.8608 47.6393 42.4286 47.207 41.8954 47.207Z" fill="#F0C419"/>
<path d="M51.55 51.0688H45.7573C45.2241 51.0688 44.7919 51.5011 44.7919 52.0343C44.7919 52.5675 45.2241 52.9998 45.7573 52.9998H51.55C52.0832 52.9998 52.5155 52.5675 52.5155 52.0343C52.5155 51.5011 52.0832 51.0688 51.55 51.0688Z" fill="#F0C419"/>
<path d="M38.9991 47.2069C41.3985 47.2069 43.3436 45.2618 43.3436 42.8624C43.3436 40.4629 41.3985 38.5178 38.9991 38.5178C36.5997 38.5178 34.6545 40.4629 34.6545 42.8624C34.6545 45.2618 36.5997 47.2069 38.9991 47.2069Z" fill="#F3D55B"/>
<path d="M51.55 49.1379H45.7573C45.2241 49.1379 44.7919 49.5702 44.7919 50.1034C44.7919 50.6366 45.2241 51.0688 45.7573 51.0688H51.55C52.0832 51.0688 52.5155 50.6366 52.5155 50.1034C52.5155 49.5702 52.0832 49.1379 51.55 49.1379Z" fill="#F3D55B"/>
<path d="M51.55 47.207H45.7573C45.2241 47.207 44.7919 47.6393 44.7919 48.1725C44.7919 48.7057 45.2241 49.1379 45.7573 49.1379H51.55C52.0832 49.1379 52.5155 48.7057 52.5155 48.1725C52.5155 47.6393 52.0832 47.207 51.55 47.207Z" fill="#F0C419"/>
<path d="M51.55 45.2761H45.7573C45.2241 45.2761 44.7919 45.7084 44.7919 46.2416C44.7919 46.7748 45.2241 47.207 45.7573 47.207H51.55C52.0832 47.207 52.5155 46.7748 52.5155 46.2416C52.5155 45.7084 52.0832 45.2761 51.55 45.2761Z" fill="#F3D55B"/>
<path d="M51.55 43.345H45.7573C45.2241 43.345 44.7919 43.7772 44.7919 44.3104C44.7919 44.8436 45.2241 45.2759 45.7573 45.2759H51.55C52.0832 45.2759 52.5155 44.8436 52.5155 44.3104C52.5155 43.7772 52.0832 43.345 51.55 43.345Z" fill="#F0C419"/>
<path d="M48.6536 43.3451C51.053 43.3451 52.9982 41.4 52.9982 39.0005C52.9982 36.6011 51.053 34.656 48.6536 34.656C46.2542 34.656 44.3091 36.6011 44.3091 39.0005C44.3091 41.4 46.2542 43.3451 48.6536 43.3451Z" fill="#F3D55B"/>
<path d="M29.3445 51.0687C31.744 51.0687 33.6891 49.1236 33.6891 46.7242C33.6891 44.3248 31.744 42.3796 29.3445 42.3796C26.9451 42.3796 25 44.3248 25 46.7242C25 49.1236 26.9451 51.0687 29.3445 51.0687Z" fill="#F3D55B"/>
<path fill-rule="evenodd" clip-rule="evenodd" d="M38.9993 42.3797C38.7651 42.3795 38.5649 42.2112 38.5243 41.9805C38.4838 41.7498 38.6147 41.5233 38.8348 41.4433C39.0549 41.3633 39.3007 41.4528 39.4178 41.6556C39.5012 41.8105 39.6623 41.9078 39.8382 41.9096C40.0141 41.9113 40.177 41.8172 40.2634 41.6639C40.3498 41.5106 40.346 41.3225 40.2534 41.1729C40.0784 40.8792 39.8052 40.6569 39.482 40.5453V40.4488C39.482 40.1822 39.2659 39.9661 38.9993 39.9661C38.7327 39.9661 38.5166 40.1822 38.5166 40.4488V40.5376C37.8521 40.7717 37.4533 41.4509 37.5727 42.1452C37.692 42.8395 38.2948 43.3465 38.9993 43.3452C39.2335 43.3454 39.4338 43.5137 39.4743 43.7444C39.5148 43.975 39.3839 44.2015 39.1638 44.2815C38.9437 44.3616 38.6979 44.2721 38.5808 44.0692C38.4435 43.8473 38.1547 43.7747 37.9288 43.9052C37.7029 44.0357 37.6215 44.3222 37.7452 44.552C37.9204 44.8458 38.194 45.0681 38.5175 45.1795V45.2761C38.5175 45.5427 38.7337 45.7588 39.0003 45.7588C39.2669 45.7588 39.483 45.5427 39.483 45.2761V45.1872C40.1477 44.9531 40.5465 44.2737 40.4268 43.5792C40.3072 42.8847 39.704 42.3779 38.9993 42.3797Z" fill="#B19046"/>
<path fill-rule="evenodd" clip-rule="evenodd" d="M50.102 39.9661C50.102 39.1663 49.4537 38.5179 48.6539 38.5179C48.4196 38.5177 48.2194 38.3493 48.1789 38.1187C48.1384 37.888 48.2693 37.6615 48.4894 37.5815C48.7095 37.5015 48.9553 37.591 49.0724 37.7938C49.2097 38.0157 49.4984 38.0883 49.7244 37.9578C49.9503 37.8273 50.0316 37.5408 49.908 37.3111C49.7332 37.0172 49.4599 36.7948 49.1366 36.6835V36.587C49.1366 36.3204 48.9205 36.1042 48.6539 36.1042C48.3872 36.1042 48.1711 36.3204 48.1711 36.587V36.6758C47.5066 36.9098 47.1078 37.589 47.2272 38.2834C47.3466 38.9777 47.9493 39.4847 48.6539 39.4833C48.8881 39.4836 49.0883 39.6519 49.1288 39.8825C49.1693 40.1132 49.0384 40.3397 48.8183 40.4197C48.5982 40.4998 48.3524 40.4103 48.2353 40.2074C48.098 39.9855 47.8093 39.9129 47.5833 40.0434C47.3574 40.1739 47.2761 40.4604 47.3997 40.6902C47.5747 40.9842 47.8484 41.2066 48.1721 41.3177V41.4142C48.1721 41.6808 48.3882 41.897 48.6548 41.897C48.9214 41.897 49.1375 41.6808 49.1375 41.4142V41.3254C49.7137 41.1213 50.0996 40.5773 50.102 39.9661Z" fill="#B19046"/>
<path fill-rule="evenodd" clip-rule="evenodd" d="M29.3448 46.2415C29.1106 46.2413 28.9103 46.073 28.8698 45.8423C28.8293 45.6116 28.9602 45.3852 29.1803 45.3051C29.4004 45.2251 29.6462 45.3146 29.7633 45.5174C29.8467 45.6724 30.0077 45.7696 30.1836 45.7714C30.3596 45.7731 30.5225 45.679 30.6089 45.5257C30.6953 45.3724 30.6915 45.1843 30.5989 45.0347C30.4239 44.741 30.1506 44.5187 29.8275 44.4072V44.3106C29.8275 44.044 29.6114 43.8279 29.3448 43.8279C29.0782 43.8279 28.862 44.044 28.862 44.3106V44.3994C28.1975 44.6335 27.7987 45.3127 27.9181 46.007C28.0375 46.7013 28.6403 47.2083 29.3448 47.207C29.579 47.2072 29.7792 47.3755 29.8197 47.6062C29.8603 47.8369 29.7294 48.0633 29.5093 48.1434C29.2891 48.2234 29.0433 48.1339 28.9262 47.9311C28.8429 47.7761 28.6818 47.6788 28.5059 47.6771C28.33 47.6754 28.167 47.7695 28.0806 47.9228C27.9943 48.076 27.9981 48.2642 28.0906 48.4138C28.2659 48.7076 28.5395 48.93 28.863 49.0413V49.1379C28.863 49.4045 29.0791 49.6206 29.3457 49.6206C29.6123 49.6206 29.8285 49.4045 29.8285 49.1379V49.0491C30.4931 48.8149 30.8919 48.1355 30.7723 47.441C30.6527 46.7465 30.0495 46.2397 29.3448 46.2415Z" fill="#B19046"/>
</svg>
