<svg width="34" height="30" viewBox="0 0 34 30" fill="none" xmlns="http://www.w3.org/2000/svg">
<g clip-path="url(#clip0_1029_441)">
<path d="M33.2891 20.3498C32.8979 19.7358 32.2265 19.2952 31.4493 19.1452C31.0634 19.0702 30.6616 19.0655 30.281 19.1358V10.3552L30.6648 10.6317C30.8118 10.7381 30.9883 10.7892 31.1644 10.7892C31.1861 10.7892 31.2077 10.7845 31.2294 10.7831C31.2437 10.7836 31.2569 10.7892 31.2712 10.7892C31.5017 10.7892 31.73 10.7006 31.8871 10.5295C32.163 10.2281 32.1117 9.78563 31.7718 9.54047L29.9897 8.25516C29.9892 8.25469 29.9881 8.25422 29.9876 8.25328L19.0564 0.370313C18.8962 0.255 18.698 0.209063 18.5029 0.220781C18.3078 0.209063 18.1096 0.254531 17.9489 0.370313L5.23241 9.54094C4.89248 9.78562 4.8412 10.2286 5.11769 10.53C5.29109 10.7194 5.55278 10.807 5.80759 10.7859C5.99421 10.7925 6.184 10.7442 6.33996 10.6317L6.72377 10.3552V18.1748C4.98447 18.8639 3.83198 19.7545 3.73154 19.8389L0.660005 21.2311C0.469686 21.3202 0.326947 21.4702 0.263508 21.6483C0.200068 21.8264 0.221215 22.0233 0.321661 22.192L4.48224 29.0967C4.58268 29.2702 4.76243 29.3967 4.97389 29.4436C5.04262 29.4623 5.11134 29.4717 5.18007 29.4717C5.3281 29.4717 5.47084 29.4342 5.59771 29.3639L8.70096 27.653C8.71154 27.6483 8.71683 27.6389 8.7274 27.6342C8.73797 27.6295 8.75383 27.6248 8.7644 27.6202C9.02345 27.4936 9.33536 27.4936 9.59969 27.6155C13.3585 29.3873 15.6687 29.7811 16.9851 29.7811C17.297 29.7811 17.5508 29.7577 17.757 29.7295C18.5235 29.692 25.3115 29.2233 32.3269 23.4342L32.8979 22.928C33.6697 22.2436 33.8283 21.1842 33.2891 20.3498ZM8.30975 9.21141L18.5024 1.86047L28.695 9.21094V19.8009L27.0561 20.6166C25.8931 21.1931 24.8463 21.765 23.8842 22.3556C23.7256 22.4494 23.5775 22.5478 23.4242 22.6416C23.4771 22.5478 23.5194 22.4494 23.5458 22.3556C23.6357 22.0791 23.641 21.8072 23.5458 21.5447C23.4454 21.2447 23.1969 20.9072 22.6471 20.6447V14.4431C22.6471 13.4728 22.2189 12.5494 21.4365 11.8416C20.58 11.0869 19.4487 10.7072 18.238 10.7728C16.0652 10.89 14.3577 12.5588 14.3577 14.565V18.1322C12.1901 17.1666 10.0755 17.2322 8.30975 17.6634V9.21141ZM21.0611 20.2702C20.9818 20.2608 20.9025 20.2561 20.8232 20.2514C16.8741 20.017 16.134 19.3655 16.0599 19.2952C16.0229 19.2577 15.9859 19.2202 15.9436 19.1827V14.5655C15.9436 13.3186 17.0168 12.2498 18.3385 12.1795C19.0892 12.142 19.787 12.3717 20.3104 12.8311C20.7968 13.2717 21.0611 13.8436 21.0611 14.4436V20.2702ZM5.48141 27.7748L2.09797 22.1592L3.86899 21.353L7.226 26.8092L5.48141 27.7748ZM31.7612 21.9483L31.222 22.4217C30.7885 22.778 30.355 23.1155 29.9215 23.4342L29.9162 23.4389C29.8422 23.4905 29.7682 23.5467 29.6942 23.5983C23.4454 28.0842 17.7041 28.3233 17.6407 28.3233C17.6036 28.328 17.5614 28.3327 17.5191 28.3373C16.8529 28.4498 14.8123 28.4827 10.3451 26.378C9.98033 26.2045 9.57854 26.1155 9.18205 26.1155C9.01288 26.1155 8.84899 26.1342 8.67982 26.1623L6.93523 23.2795C6.89294 23.2186 6.85065 23.1577 6.81893 23.092L5.27523 20.5467C5.60829 20.3311 6.10523 20.0358 6.72377 19.7498C7.18899 19.5342 7.72294 19.3186 8.30975 19.1545C9.93275 18.6764 11.9417 18.5358 13.94 19.5202C14.0775 19.5905 14.2202 19.6748 14.3577 19.778C14.5268 19.8998 14.696 20.0452 14.8652 20.2186C15.1084 20.467 15.4626 20.6827 15.9436 20.8655C16.9692 21.2686 18.55 21.5264 20.7175 21.6577C20.8443 21.667 20.9554 21.6764 21.0611 21.6858C21.7325 21.7608 21.9968 21.9108 22.0286 21.9436C22.0286 21.9764 21.9651 22.1358 21.7008 22.3561C21.6426 22.4077 21.5792 22.4592 21.4999 22.5155C21.3783 22.6045 21.2303 22.6983 21.0611 22.7827C19.9721 23.3686 17.9896 23.8748 15.7692 23.4952C15.3833 23.4295 14.9921 23.3358 14.5956 23.2139C14.5215 23.1905 14.4475 23.1811 14.3735 23.1811C14.0775 23.1623 13.792 23.2983 13.6387 23.5373C13.5911 23.6077 13.5647 23.6873 13.5488 23.7623C13.5065 24.0061 13.607 24.2639 13.8343 24.428C13.9612 24.503 14.0933 24.5545 14.2308 24.6014C14.7489 24.7702 15.2828 24.8873 15.8326 24.9295C21.5422 25.3702 24.2172 23.842 24.2172 23.842L24.36 23.7623L26.9028 22.3561L27.8333 21.8405L28.695 21.4092L30.0537 20.7342C30.0801 20.7248 30.1065 20.7108 30.1277 20.6967C30.1752 20.6639 30.2281 20.6358 30.281 20.6123C30.5347 20.4952 30.8202 20.4623 31.1057 20.5186C31.444 20.5842 31.7242 20.7623 31.8987 21.0248C32.0837 21.3014 32.015 21.7186 31.7612 21.9483Z" fill="white"/>
</g>
<defs>
<clipPath id="clip0_1029_441">
<rect width="33.8344" height="30" fill="white"/>
</clipPath>
</defs>
</svg>
