<svg width="34" height="30" viewBox="0 0 34 30" fill="none" xmlns="http://www.w3.org/2000/svg">
<path d="M33.4472 14.1714C32.5603 13.385 18.5019 0.919876 17.8517 0.343323C17.3356 -0.114441 16.4988 -0.114441 15.9828 0.343323C15.2716 0.973892 1.25945 13.3978 0.387204 14.1714C-0.129068 14.629 -0.129068 15.371 0.387204 15.8288C0.903218 16.2863 1.7401 16.2863 2.25611 15.8288L2.59917 15.5246V28.8281C2.59917 29.4754 3.19108 30 3.92083 30H29.9136C30.6433 30 31.2352 29.4754 31.2352 28.8281V15.5246L31.578 15.8288C32.0943 16.2863 32.9312 16.2863 33.4472 15.8288C33.9635 15.371 33.9635 14.629 33.4472 14.1714ZM20.7942 27.6562H13.0405V20.7813H20.7942V27.6562ZM28.5919 27.6562H23.4375V19.6095C23.4375 18.9622 22.8458 18.4376 22.1158 18.4376H11.7189C10.9889 18.4376 10.3972 18.9622 10.3972 19.6095V27.6562H5.24274V13.1808L16.9172 2.82921L28.5919 13.1808V27.6562Z" fill="white"/>
</svg>
