<svg width="34" height="30" viewBox="0 0 34 30" fill="none" xmlns="http://www.w3.org/2000/svg">
<path d="M9.97877 7.03125C9.97877 5.09273 8.20008 3.51562 6.0138 3.51562C3.82751 3.51562 2.04883 5.09273 2.04883 7.03125C2.04883 8.96977 3.82751 10.5469 6.0138 10.5469C8.20008 10.5469 9.97877 8.96977 9.97877 7.03125ZM6.0138 8.78906C4.92066 8.78906 4.03131 8.00051 4.03131 7.03125C4.03131 6.06199 4.92066 5.27344 6.0138 5.27344C7.10694 5.27344 7.99628 6.06199 7.99628 7.03125C7.99628 8.00051 7.10694 8.78906 6.0138 8.78906Z" fill="white"/>
<path d="M31.7861 7.03125C31.7861 5.09273 30.0075 3.51562 27.8212 3.51562C25.6349 3.51562 23.8562 5.09273 23.8562 7.03125C23.8562 8.96977 25.6349 10.5469 27.8212 10.5469C30.0075 10.5469 31.7861 8.96977 31.7861 7.03125ZM27.8212 8.78906C26.728 8.78906 25.8387 8.00051 25.8387 7.03125C25.8387 6.06199 26.728 5.27344 27.8212 5.27344C28.9143 5.27344 29.8037 6.06199 29.8037 7.03125C29.8037 8.00051 28.9143 8.78906 27.8212 8.78906Z" fill="white"/>
<path d="M27.8209 10.5469C25.9895 10.5469 24.3491 11.2848 23.2573 12.4427C22.1749 10.2919 19.7404 8.78906 16.9172 8.78906C14.094 8.78906 11.6595 10.2919 10.5772 12.4427C9.48527 11.2848 7.84489 10.5469 6.01354 10.5469C2.71501 10.5469 0 12.9154 0 15.8203V20.2148C0 20.7002 0.443812 21.0938 0.991243 21.0938H2.07546L2.97855 29.2074C3.02858 29.6572 3.45521 30 3.96497 30H7.99602C8.50579 30 8.93242 29.6572 8.98244 29.2074L9.88553 21.0938H13.1956L13.9468 29.1931C13.9891 29.6491 14.4187 30 14.9347 30H18.8997C19.4157 30 19.8453 29.6491 19.8876 29.1931L20.6389 21.0938H23.9489L24.8519 29.2074C24.902 29.6572 25.3286 30 25.8384 30H29.8694C30.3792 30 30.8058 29.6572 30.8559 29.2074L31.759 21.0938H32.8432C33.3906 21.0938 33.8344 20.7002 33.8344 20.2148V15.8203C33.8344 12.9188 31.1228 10.5469 27.8209 10.5469ZM8.98727 19.3359C8.4775 19.3359 8.05087 19.6788 8.00085 20.1285L7.09776 28.2422H4.86323L3.96015 20.1285C3.91012 19.6788 3.48349 19.3359 2.97373 19.3359H1.98249V15.8203C1.98249 13.8818 3.79078 12.3047 6.01354 12.3047C8.19982 12.3047 9.97851 13.8818 9.97851 15.8203V19.3359H8.98727ZM19.7258 19.3359C19.2098 19.3359 18.7801 19.6869 18.7379 20.1428L17.9866 28.2422H15.8478L15.0966 20.1428C15.0543 19.6869 14.6246 19.3359 14.1086 19.3359H11.961V14.9414C11.961 12.8192 13.6665 11.0436 15.926 10.6353V14.9414C15.926 15.4268 16.3698 15.8203 16.9172 15.8203C17.4646 15.8203 17.9085 15.4268 17.9085 14.9414V10.6353C20.168 11.0436 21.8734 12.8191 21.8734 14.9414V19.3359H19.7258ZM31.8519 19.3359H30.8607C30.3509 19.3359 29.9243 19.6788 29.8742 20.1285L28.9712 28.2422H26.7367L25.8336 20.1285C25.7835 19.6788 25.3569 19.3359 24.8471 19.3359H23.8559V15.8203C23.8559 13.8818 25.6346 12.3047 27.8209 12.3047C30.0436 12.3047 31.8519 13.8818 31.8519 15.8203V19.3359Z" fill="white"/>
<path d="M21.8736 4.39453C21.8736 1.97139 19.6503 0 16.9174 0C14.1845 0 11.9612 1.97139 11.9612 4.39453C11.9612 6.81768 14.1845 8.78906 16.9174 8.78906C19.6503 8.78906 21.8736 6.81768 21.8736 4.39453ZM16.9174 7.03125C15.2777 7.03125 13.9437 5.84842 13.9437 4.39453C13.9437 2.94064 15.2777 1.75781 16.9174 1.75781C18.5571 1.75781 19.8911 2.94064 19.8911 4.39453C19.8911 5.84842 18.5571 7.03125 16.9174 7.03125Z" fill="white"/>
</svg>
