<svg width="78" height="78" viewBox="0 0 78 78" fill="none" xmlns="http://www.w3.org/2000/svg">
<circle cx="39" cy="39" r="39" fill="#89AC76" fill-opacity="0.14"/>
<path d="M24 24V43.4118H34.5882L35.1765 35.8529L34.5882 31.1066L31.0588 24H24Z" fill="#89AC76"/>
<path d="M34.5883 31.1066V43.4118H36.5303L45.1765 36.3529V24H38.1177L34.5883 31.1066Z" fill="#89AC76"/>
<path d="M27.5294 34.5883H32.8235V36.353H27.5294V34.5883Z" fill="#FBBD00"/>
<path d="M27.5294 38.1177H31.0588V39.8824H27.5294V38.1177Z" fill="#FBBD00"/>
<path d="M31.0588 24V32.283L34.5882 31.1066L35.1765 27.4706L34.5882 24H31.0588Z" fill="#FBBD00"/>
<path d="M34.5883 24V31.1066L38.1177 32.283V24H34.5883Z" fill="#FD8F01"/>
<path d="M36.3529 45.1764C36.3529 50.0418 40.3111 54 45.1764 54L46.3529 44.7647L45.1764 36.3529C40.3111 36.3529 36.3529 40.3111 36.3529 45.1764Z" fill="#FDD82E"/>
<path d="M45.1764 36.3528V53.9998C50.0417 53.9998 53.9999 50.0417 53.9999 45.1763C53.9999 40.311 50.0417 36.3528 45.1764 36.3528Z" fill="#FBBD00"/>
<path d="M44.2939 43.4116C44.2939 43.8982 44.6897 44.294 45.1763 44.294L45.7645 43.4116L45.1763 42.5293C44.6897 42.5293 44.2939 42.9251 44.2939 43.4116Z" fill="#FBBD00"/>
<path d="M46.0587 38.1726L45.1764 42.5293V44.294L46.0587 52.1801C49.536 51.7446 52.2352 48.7698 52.2352 45.1764C52.2352 41.5829 49.536 38.6081 46.0587 38.1726Z" fill="#FD8F01"/>
<path d="M44.294 38.1726C40.8167 38.6081 38.1176 41.5829 38.1176 45.1764C38.1176 48.7698 40.8167 51.7446 44.294 52.1801V49.5881L45.1764 47.8234L45.7646 46.8627L45.1764 46.0587V44.294L44.5881 43.4999L45.1764 42.5293L44.294 38.1726Z" fill="#FBBD00"/>
<path d="M46.0587 46.9411C46.0587 46.4545 45.6629 46.0587 45.1764 46.0587V47.8234C45.6629 47.8234 46.0587 47.4277 46.0587 46.9411Z" fill="#FD8F01"/>
<path d="M42.5293 47.8234V49.5881H44.294V52.1801C44.5831 52.2162 44.8776 52.2351 45.1764 52.2351L45.7646 49.5587L45.1764 47.8234H42.5293Z" fill="#FDF3F3"/>
<path d="M44.294 43.4117C44.294 42.9251 44.6898 42.5293 45.1764 42.5293L45.7646 40.9705L45.1764 38.1176C44.8776 38.1176 44.5831 38.1364 44.294 38.1726V40.9164C43.267 41.2807 42.5293 42.2614 42.5293 43.4117C42.5293 44.8713 43.7167 46.0588 45.1764 46.0588L45.7646 45.2941L45.1764 44.2941C44.6898 44.294 44.294 43.8983 44.294 43.4117Z" fill="#FDF3F3"/>
<path d="M46.0587 46.941C46.0587 47.4276 45.6629 47.8234 45.1764 47.8234V52.2351C45.4752 52.2351 45.7696 52.2163 46.0587 52.1801V49.4363C47.0857 49.0721 47.8235 48.0913 47.8235 46.941C47.8235 45.4815 46.636 44.2939 45.1764 44.2939V46.0587C45.6629 46.0587 46.0587 46.4544 46.0587 46.941Z" fill="#EBE4F0"/>
<path d="M47.8235 42.5293V40.7646H46.0587V38.1726C45.7696 38.1364 45.4752 38.1176 45.1764 38.1176V42.5293H47.8235Z" fill="#EBE4F0"/>
</svg>
