<svg width="1200" height="445" viewBox="0 0 1200 445" fill="none" xmlns="http://www.w3.org/2000/svg">
<rect width="1200" height="445" fill="#89AC76"/>
<rect width="155.443" height="514.832" transform="matrix(1 0 -0.502875 0.864359 415.721 0)" fill="url(#paint0_linear_1029_370)" fill-opacity="0.4"/>
<rect width="155.443" height="514.832" transform="matrix(1 0 -0.502875 0.864359 258.896 0)" fill="url(#paint1_linear_1029_370)" fill-opacity="0.4"/>
<rect width="155.443" height="514.832" transform="matrix(1 0 -0.502875 0.864359 730.045 0)" fill="url(#paint2_linear_1029_370)" fill-opacity="0.4"/>
<rect width="155.443" height="514.832" transform="matrix(1 0 -0.502875 0.864359 572.186 0)" fill="url(#paint3_linear_1029_370)" fill-opacity="0.4"/>
<rect width="155.443" height="514.832" transform="matrix(1 0 -0.502875 0.864359 886.514 0)" fill="url(#paint4_linear_1029_370)" fill-opacity="0.4"/>
<rect width="155.443" height="514.832" transform="matrix(1 0 -0.502875 0.864359 1044.56 0)" fill="url(#paint5_linear_1029_370)" fill-opacity="0.4"/>
<defs>
<linearGradient id="paint0_linear_1029_370" x1="-354.448" y1="50.8431" x2="184.817" y2="119.106" gradientUnits="userSpaceOnUse">
<stop stop-color="white"/>
<stop offset="1" stop-color="#89AC76" stop-opacity="0"/>
</linearGradient>
<linearGradient id="paint1_linear_1029_370" x1="-354.448" y1="50.8431" x2="184.817" y2="119.106" gradientUnits="userSpaceOnUse">
<stop stop-color="white"/>
<stop offset="1" stop-color="#89AC76" stop-opacity="0"/>
</linearGradient>
<linearGradient id="paint2_linear_1029_370" x1="-354.448" y1="50.8431" x2="184.817" y2="119.106" gradientUnits="userSpaceOnUse">
<stop stop-color="white"/>
<stop offset="1" stop-color="#89AC76" stop-opacity="0"/>
</linearGradient>
<linearGradient id="paint3_linear_1029_370" x1="-354.448" y1="50.8431" x2="184.817" y2="119.106" gradientUnits="userSpaceOnUse">
<stop stop-color="white"/>
<stop offset="1" stop-color="#89AC76" stop-opacity="0"/>
</linearGradient>
<linearGradient id="paint4_linear_1029_370" x1="-354.448" y1="50.8431" x2="184.817" y2="119.106" gradientUnits="userSpaceOnUse">
<stop stop-color="white"/>
<stop offset="1" stop-color="#89AC76" stop-opacity="0"/>
</linearGradient>
<linearGradient id="paint5_linear_1029_370" x1="-354.448" y1="50.8431" x2="184.817" y2="119.106" gradientUnits="userSpaceOnUse">
<stop stop-color="white"/>
<stop offset="1" stop-color="#89AC76" stop-opacity="0"/>
</linearGradient>
</defs>
</svg>
