<svg width="51" height="51" viewBox="0 0 51 51" fill="none" xmlns="http://www.w3.org/2000/svg">
<circle cx="25.3901" cy="25.3901" r="25.3901" fill="#89AC76"/>
<path fill-rule="evenodd" clip-rule="evenodd" d="M30.9177 29.697C32.468 27.545 33.5279 25.1799 33.5279 22.7859C33.5279 18.5072 30.0594 15.0387 25.7807 15.0387C21.502 15.0387 18.0335 18.5072 18.0335 22.7859C18.0335 25.1799 19.0934 27.545 20.6437 29.697C22.1823 31.8327 24.0742 33.577 25.4231 34.6818C25.6443 34.863 25.917 34.863 26.1383 34.6818C27.4872 33.577 29.3791 31.8327 30.9177 29.697V29.697ZM27.5409 36.3941C30.4009 34.0516 35.7414 28.8638 35.7414 22.7859C35.7414 17.2848 31.2819 12.8252 25.7807 12.8252C20.2795 12.8252 15.82 17.2848 15.82 22.7859C15.82 28.8638 21.1604 34.0516 24.0205 36.3941C25.0575 37.2435 26.5038 37.2435 27.5409 36.3941Z" fill="white"/>
<path fill-rule="evenodd" clip-rule="evenodd" d="M25.7807 20.5724C24.5582 20.5724 23.5672 21.5634 23.5672 22.7859C23.5672 24.0084 24.5582 24.9994 25.7807 24.9994C27.0032 24.9994 27.9942 24.0084 27.9942 22.7859C27.9942 21.5634 27.0032 20.5724 25.7807 20.5724ZM21.3538 22.7859C21.3538 20.3409 23.3358 18.3589 25.7807 18.3589C28.2256 18.3589 30.2077 20.3409 30.2077 22.7859C30.2077 25.2308 28.2256 27.2128 25.7807 27.2128C23.3358 27.2128 21.3538 25.2308 21.3538 22.7859Z" fill="white"/>
</svg>
