<svg width="51" height="51" viewBox="0 0 51 51" fill="none" xmlns="http://www.w3.org/2000/svg">
<circle cx="25.498" cy="25.3901" r="25.3901" fill="#89AC76"/>
<path fill-rule="evenodd" clip-rule="evenodd" d="M33.9613 17.2523H16.2534C15.6422 17.2523 15.1467 17.7478 15.1467 18.3591V31.64C15.1467 32.2513 15.6422 32.7468 16.2534 32.7468H33.9613C34.5726 32.7468 35.0681 32.2513 35.0681 31.64V18.3591C35.0681 17.7478 34.5726 17.2523 33.9613 17.2523ZM16.2534 15.0388C14.4197 15.0388 12.9332 16.5253 12.9332 18.3591V31.64C12.9332 33.4738 14.4197 34.9602 16.2534 34.9602H33.9613C35.7951 34.9602 37.2816 33.4738 37.2816 31.64V18.3591C37.2816 16.5253 35.7951 15.0388 33.9613 15.0388H16.2534Z" fill="white"/>
<path fill-rule="evenodd" clip-rule="evenodd" d="M17.6165 19.8638C18.0078 19.3943 18.7057 19.3308 19.1752 19.7221L24.3986 24.075C24.8091 24.417 25.4052 24.417 25.8157 24.075L31.0391 19.7221C31.5087 19.3308 32.2066 19.3943 32.5979 19.8638C32.9892 20.3334 32.9258 21.0313 32.4562 21.4226L27.2327 25.7754C26.0014 26.8016 24.2129 26.8016 22.9816 25.7754L17.7582 21.4226C17.2886 21.0313 17.2252 20.3334 17.6165 19.8638V19.8638Z" fill="white"/>
</svg>
