<svg width="51" height="51" viewBox="0 0 51 51" fill="none" xmlns="http://www.w3.org/2000/svg">
<circle cx="25.4106" cy="25.3901" r="25.3901" fill="#89AC76"/>
<path fill-rule="evenodd" clip-rule="evenodd" d="M16.8827 15.1032C18.3115 13.6744 20.6744 13.8424 21.8867 15.4588L23.8991 18.1419C24.8904 19.4638 24.759 21.3135 23.5906 22.4818L22.1069 23.9655C22.2507 24.3398 22.7241 25.161 24.1655 26.6024C25.6069 28.0439 26.4282 28.5172 26.8025 28.661L28.2861 27.1774C29.4545 26.009 31.3042 25.8775 32.626 26.869L35.3092 28.8813C36.9256 30.0937 37.0936 32.4566 35.6648 33.8853C35.2003 34.3498 35.1217 34.4284 34.3465 35.2035C33.5565 35.9935 31.8792 36.7319 30.1808 36.8058C27.5231 36.9213 23.9132 35.7413 19.47 31.298C15.0267 26.8548 13.8467 23.2448 13.9622 20.5872C14.0265 19.1088 14.4965 17.4851 15.5706 16.4276C16.3396 15.6463 16.4396 15.5463 16.8827 15.1032V15.1032ZM16.1736 20.6833C16.0935 22.5256 16.8699 25.5676 21.0352 29.7329C25.2004 33.8981 28.2424 34.6745 30.0847 34.5944C31.8043 34.5196 32.7269 33.6886 32.7814 33.6384L34.0996 32.3201C34.5759 31.8439 34.52 31.0562 33.9811 30.6521L31.2979 28.6397C30.8573 28.3093 30.2407 28.3531 29.8513 28.7426C29.2646 29.3294 28.8639 29.7358 28.0799 30.5169C26.4512 32.1395 23.6632 29.2305 22.6003 28.1677C21.6235 27.1909 18.6468 24.3144 20.2495 22.6926C20.2527 22.6894 20.6843 22.2578 22.0254 20.9167C22.4149 20.5272 22.4587 19.9107 22.1283 19.47L20.1159 16.7869C19.7118 16.2481 18.9241 16.1921 18.4479 16.6683C18.0096 17.1067 17.5135 17.6027 17.131 17.9879C16.3437 18.7807 16.2157 19.7143 16.1736 20.6833V20.6833Z" fill="white"/>
</svg>
