<svg width="78" height="78" viewBox="0 0 78 78" fill="none" xmlns="http://www.w3.org/2000/svg">
<circle cx="39" cy="39" r="39" fill="#89AC76" fill-opacity="0.14"/>
<path d="M36.512 29.233H29.4436C29.1566 29.233 28.9239 29.0004 28.9239 28.7134C28.9239 28.4263 29.1565 28.1937 29.4436 28.1937H36.512C36.799 28.1937 37.0317 28.4263 37.0317 28.7134C37.0317 29.0004 36.799 29.233 36.512 29.233ZM25.9811 29.233H19.5196C19.2326 29.233 19 29.0004 19 28.7134C19 28.4263 19.2326 28.1937 19.5196 28.1937H25.9811C26.2681 28.1937 26.5008 28.4263 26.5008 28.7134C26.5008 29.0004 26.2681 29.233 25.9811 29.233Z" fill="#89AC76"/>
<path d="M26.4819 32.8703H21.5975C21.3105 32.8703 21.0778 32.6378 21.0778 32.3507C21.0778 32.0637 21.3104 31.831 21.5975 31.831H26.4819C26.7689 31.831 27.0016 32.0636 27.0016 32.3507C27.0015 32.6378 26.7689 32.8703 26.4819 32.8703Z" fill="#89AC76"/>
<path d="M23.1745 40.1431H19.5196C19.2326 40.1431 19 39.9105 19 39.6234C19 39.3364 19.2326 39.1038 19.5196 39.1038H23.1745C23.4615 39.1038 23.6942 39.3364 23.6942 39.6234C23.6942 39.9105 23.4615 40.1431 23.1745 40.1431Z" fill="#89AC76"/>
<path d="M27.1909 43.7806H21.1988C20.9118 43.7806 20.6792 43.548 20.6792 43.2609C20.6792 42.9739 20.9117 42.7413 21.1988 42.7413H27.1909C27.4779 42.7413 27.7105 42.9738 27.7105 43.2609C27.7105 43.5479 27.4779 43.7806 27.1909 43.7806Z" fill="#89AC76"/>
<path d="M25.2524 47.4179H22.7071C22.4201 47.4179 22.1874 47.1853 22.1874 46.8983C22.1874 46.6113 22.42 46.3786 22.7071 46.3786H25.2524C25.5394 46.3786 25.772 46.6112 25.772 46.8983C25.772 47.1853 25.5394 47.4179 25.2524 47.4179Z" fill="#89AC76"/>
<path d="M33.4507 51.0552H25.7729C25.4859 51.0552 25.2533 50.8227 25.2533 50.5356C25.2533 50.2486 25.4859 50.0159 25.7729 50.0159H33.4507C33.7377 50.0159 33.9703 50.2485 33.9703 50.5356C33.9703 50.8226 33.7377 51.0552 33.4507 51.0552Z" fill="#89AC76"/>
<path d="M27.8253 36.5075H23.7874C23.5004 36.5075 23.2677 36.275 23.2677 35.9879C23.2677 35.7008 23.5003 35.4682 23.7874 35.4682H27.8253C28.1123 35.4682 28.3449 35.7008 28.3449 35.9879C28.3449 36.275 28.1123 36.5075 27.8253 36.5075Z" fill="#89AC76"/>
<path fill-rule="evenodd" clip-rule="evenodd" d="M43.5626 23.0372L41.9128 27.7313C42.7652 27.8373 43.6195 28.0278 44.466 28.3067C45.3124 28.5856 46.1138 28.9411 46.8621 29.3614L48.5118 24.6673L43.5626 23.0372Z" fill="#89AC76"/>
<path fill-rule="evenodd" clip-rule="evenodd" d="M42.18 20.5273L41.5692 22.3813C41.4376 22.7819 41.6556 23.218 42.0563 23.3495L43.2308 23.7345L48.178 25.3647L49.3505 25.7516C49.7512 25.8832 50.1871 25.6632 50.3187 25.2625L50.9295 23.4085C51.0611 23.0078 50.8411 22.5718 50.4405 22.4403L43.1482 20.0382C42.7476 19.9066 42.3115 20.1266 42.18 20.5273V20.5273Z" fill="#375E7D"/>
<path fill-rule="evenodd" clip-rule="evenodd" d="M49.3504 25.7514C49.7511 25.8831 50.1871 25.663 50.3187 25.2624L50.9295 23.4084C51.061 23.0077 50.8411 22.5717 50.4405 22.4401L48.6336 21.845C49.0343 21.9766 49.2543 22.4126 49.1226 22.8133L48.5118 24.6673C48.3803 25.068 47.9443 25.2879 47.5436 25.1564H47.5476L48.178 25.3646L49.3504 25.7514Z" fill="#2B4D66"/>
<path fill-rule="evenodd" clip-rule="evenodd" d="M36.3018 53.0968C43.3544 55.4183 50.9531 51.5845 53.2745 44.5336C55.319 38.3292 52.595 31.7006 47.1076 28.6152C46.3593 28.1948 45.558 27.8394 44.7115 27.5605C43.865 27.2816 43.0107 27.0911 42.1584 26.9851C39.1829 26.6139 36.235 27.262 33.7407 28.7134C31.001 30.3082 28.8092 32.8752 27.7408 36.1237C25.4175 43.1745 29.2511 50.7753 36.3018 53.0968V53.0968Z" fill="#375E7D"/>
<path fill-rule="evenodd" clip-rule="evenodd" d="M43.7845 30.3787C38.2893 28.5679 32.3679 31.5572 30.5571 37.0525C28.7483 42.5479 31.7355 48.4694 37.2307 50.2783C42.726 52.0891 48.6473 49.1019 50.4581 43.6065L50.464 43.5869C52.261 38.0974 49.2738 32.1857 43.7845 30.3787V30.3787Z" fill="#EFF6FF"/>
<path fill-rule="evenodd" clip-rule="evenodd" d="M43.7845 30.3787L41.0546 38.6669C40.7384 39.6254 41.3472 40.5288 42.1563 40.8509L50.464 43.5868C52.261 38.0973 49.2738 32.1856 43.7845 30.3787V30.3787Z" fill="#EB5468"/>
<path fill-rule="evenodd" clip-rule="evenodd" d="M50.464 43.5868C52.0391 38.7749 49.9376 33.639 45.6994 31.2272C46.4437 33.4485 46.8542 35.8917 46.8542 38.4567C46.8542 39.7727 46.7462 41.0571 46.54 42.2945L50.464 43.5868Z" fill="#E5384F"/>
<path fill-rule="evenodd" clip-rule="evenodd" d="M53.2745 44.5335C55.319 38.3291 52.5949 31.7005 47.1076 28.6151C46.5577 28.3047 45.9783 28.0317 45.3734 27.798C45.1554 27.7136 44.9354 27.635 44.7115 27.5604C44.4483 27.474 44.1852 27.3954 43.92 27.3267C44.6309 28.5208 45.2319 29.8308 45.6993 31.2272C49.9376 33.639 52.039 38.775 50.464 43.5868C50.462 43.5927 50.46 43.5986 50.4581 43.6065C49.3328 47.02 46.6225 49.4652 43.4133 50.3942C42.5512 51.6865 41.5534 52.8257 40.4458 53.7742C46.1158 53.8018 51.4048 50.2115 53.2745 44.5335V44.5335Z" fill="#2B4D66"/>
<path fill-rule="evenodd" clip-rule="evenodd" d="M43.4133 50.3943C46.6224 49.4653 49.3327 47.02 50.4581 43.6066L50.4639 43.5869L46.5399 42.2946C46.1746 44.4924 45.5029 46.5448 44.5838 48.3772C44.2284 49.0843 43.8375 49.7579 43.4133 50.3943V50.3943Z" fill="#D9EEFF"/>
<path fill-rule="evenodd" clip-rule="evenodd" d="M47.1076 28.615L48.178 25.3645L47.5436 25.1563L46.3711 24.7694L45.3734 27.7979C45.9783 28.0317 46.5577 28.3047 47.1076 28.615Z" fill="#D9EEFF"/>
<path d="M37.2426 50.7627C37.1887 50.7627 37.1339 50.7542 37.0799 50.7364C36.8073 50.6466 36.6591 50.3529 36.749 50.0803L37.3087 48.3814C37.3984 48.1088 37.6919 47.9605 37.9648 48.0505C38.2374 48.1403 38.3856 48.434 38.2957 48.7066L37.736 50.4055C37.664 50.6242 37.4608 50.7627 37.2426 50.7627V50.7627Z" fill="#375E7D"/>
<path d="M32.2797 38.1183C32.2257 38.1183 32.1708 38.1099 32.1168 38.092L30.4199 37.5322C30.1474 37.4424 29.9993 37.1485 30.0893 36.8759C30.1791 36.6035 30.4726 36.4551 30.7455 36.5453L32.4424 37.1051C32.7149 37.1949 32.863 37.4888 32.773 37.7614C32.7009 37.9798 32.4978 38.1183 32.2797 38.1183Z" fill="#375E7D"/>
<path d="M36.6106 33.0904C36.4208 33.0904 36.2379 32.9861 36.1464 32.8051L35.3391 31.2084C35.2096 30.9523 35.3124 30.6397 35.5684 30.5102C35.8246 30.3809 36.1372 30.4834 36.2666 30.7395L37.0739 32.3363C37.2034 32.5924 37.1006 32.905 36.8446 33.0345C36.7694 33.0724 36.6894 33.0904 36.6106 33.0904V33.0904Z" fill="#375E7D"/>
<path d="M45.2245 50.1656C45.0346 50.1656 44.8515 50.061 44.7602 49.8798L43.955 48.283C43.8257 48.0268 43.9287 47.7143 44.185 47.5851C44.4411 47.4558 44.7536 47.5588 44.8829 47.8151L45.6881 49.4119C45.8173 49.6681 45.7144 49.9806 45.4581 50.1098C45.3831 50.1476 45.3032 50.1656 45.2245 50.1656V50.1656Z" fill="#375E7D"/>
<path d="M31.1782 45.5404C30.9882 45.5404 30.8051 45.4358 30.7138 45.2546C30.5846 44.9984 30.6875 44.686 30.9438 44.5567L32.5406 43.7515C32.7967 43.622 33.1093 43.7251 33.2385 43.9814C33.3677 44.2377 33.2648 44.5501 33.0085 44.6793L31.4117 45.4846C31.3367 45.5225 31.2569 45.5404 31.1782 45.5404V45.5404Z" fill="#375E7D"/>
<path d="M39.0964 39.7111C38.9714 39.7111 38.8461 39.6663 38.7464 39.5755L34.9736 36.1365C34.7616 35.9431 34.7463 35.6145 34.9396 35.4024C35.1329 35.1903 35.4615 35.1751 35.6737 35.3684L39.4465 38.8075C39.6585 39.0009 39.6738 39.3294 39.4804 39.5415C39.378 39.654 39.2375 39.7111 39.0964 39.7111V39.7111Z" fill="#375E7D"/>
<path d="M40.9557 44.5151C40.6956 44.5151 40.4712 44.3203 40.4402 44.0557L40.2124 42.1054C40.1791 41.8204 40.3832 41.5624 40.6682 41.529C40.9522 41.4962 41.2113 41.6997 41.2446 41.9849L41.4724 43.9351C41.5058 44.2202 41.3017 44.4782 41.0166 44.5115C40.9962 44.5138 40.9759 44.5151 40.9557 44.5151V44.5151Z" fill="#375E7D"/>
<path d="M40.5201 51.3297C39.3624 51.3297 38.1996 51.1446 37.0681 50.7718C31.3103 48.8765 28.1679 42.6492 30.0636 36.8902C30.9829 34.1002 32.9332 31.8351 35.5551 30.512C38.1775 29.1887 41.1578 28.9662 43.9472 29.8853C49.6937 31.777 52.8385 37.9922 50.9599 43.7424L50.9559 43.7559C50.9545 43.7604 50.9532 43.7648 50.9517 43.7693C50.0325 46.5589 48.0822 48.8237 45.4602 50.1463C43.9016 50.9323 42.2163 51.3297 40.5201 51.3297ZM40.4975 30.3672C38.961 30.3672 37.435 30.7273 36.0233 31.4397C33.6491 32.6378 31.8832 34.6889 31.0507 37.2151C29.3342 42.4298 32.1794 48.0685 37.3932 49.7847C39.9192 50.6171 42.6178 50.4159 44.9921 49.2183C47.3643 48.0217 49.1293 45.9735 49.9625 43.4503L49.9664 43.4375C49.9676 43.4334 49.9689 43.4293 49.9702 43.4253C51.6751 38.217 48.8274 32.5858 43.6221 30.8723C43.622 30.8723 43.6219 30.8722 43.6219 30.8722C42.5979 30.5348 41.5452 30.3672 40.4975 30.3672V30.3672ZM50.4582 43.6064H50.4588H50.4582Z" fill="#FFC250"/>
<path fill-rule="evenodd" clip-rule="evenodd" d="M41.0546 38.6669C40.1472 38.3684 39.1692 38.8614 38.8706 39.7688C38.5721 40.6761 39.065 41.6543 39.9724 41.9528C40.8797 42.2513 41.8578 41.7584 42.1563 40.851C42.4549 39.9436 41.9619 38.9655 41.0546 38.6669Z" fill="#FFE07D"/>
<path fill-rule="evenodd" clip-rule="evenodd" d="M42.1564 40.851C42.4549 39.9437 41.962 38.9655 41.0546 38.667C40.5813 38.5118 40.0884 38.5707 39.6818 38.7927C40.5204 39.1305 40.9643 40.0673 40.6776 40.9394C40.5342 41.3714 40.2377 41.7112 39.8665 41.9155C39.9019 41.9292 39.9372 41.941 39.9725 41.9528C40.8799 42.2514 41.8579 41.7584 42.1564 40.851V40.851Z" fill="#FFE07D"/>
</svg>
