<svg width="30" height="30" viewBox="0 0 30 30" fill="none" xmlns="http://www.w3.org/2000/svg">
<path d="M4.93384 6.00586H6.91632V8.50594H4.93384V6.00586Z" fill="white"/>
<path d="M9.86829 6.00586H11.8508V8.50594H9.86829V6.00586Z" fill="white"/>
<path d="M4.93384 11.0059H6.91632V13.5059H4.93384V11.0059Z" fill="white"/>
<path d="M9.86829 11.0059H11.8508V13.5059H9.86829V11.0059Z" fill="white"/>
<path d="M4.93384 16.0059H6.91632V18.5059H4.93384V16.0059Z" fill="white"/>
<path d="M9.86829 16.0059H11.8508V18.5059H9.86829V16.0059Z" fill="white"/>
<path d="M4.93384 21.0059H6.91632V23.5059H4.93384V21.0059Z" fill="white"/>
<path d="M9.86829 21.0059H11.8508V23.5059H9.86829V21.0059Z" fill="white"/>
<path d="M19.3402 11.0059H21.3227V13.5059H19.3402V11.0059Z" fill="white"/>
<path d="M19.3402 16.0059H21.3227V18.5059H19.3402V16.0059Z" fill="white"/>
<path d="M25.8885 26.6844C27.7987 26.2859 29.2257 24.763 29.2257 22.9493C29.2257 21.1336 27.7958 19.6095 25.8825 19.2128V5.9864H16.7954V2.50168H15.1861V0H1.60922V2.50168H0V30L29.1867 29.9902V28.2323H25.8885V26.6844ZM3.59171 1.75781H13.2037V4.25949H14.8129V28.2326H1.98249V4.25949H3.59171V1.75781ZM16.7954 7.74422H23.9001V19.2153C21.9927 19.6159 20.5688 21.1372 20.5688 22.9493C20.5688 24.7611 21.9927 26.2827 23.9001 26.6833V28.2323H16.7954V7.74422ZM27.2432 22.9493C27.2432 24.0962 26.1908 25.0294 24.8972 25.0294C23.6035 25.0294 22.5513 24.0962 22.5513 22.9493C22.5513 21.8024 23.6035 20.8692 24.8972 20.8692C26.1908 20.8692 27.2432 21.8024 27.2432 22.9493Z" fill="white"/>
</svg>
