<svg width="34" height="30" viewBox="0 0 34 30" fill="none" xmlns="http://www.w3.org/2000/svg">
<path d="M30.099 30H13.7924C13.0022 30 12.3557 29.4268 12.3557 28.7261C12.3557 28.0255 13.0022 27.4522 13.7924 27.4522H28.6623V2.54777H15.2291V8.9172C15.2291 9.61783 14.5826 10.1911 13.7924 10.1911C13.0022 10.1911 12.3557 9.61783 12.3557 8.9172V1.27389C12.3557 0.573248 13.0022 0 13.7924 0H30.099C30.8892 0 31.5357 0.573248 31.5357 1.27389V28.7261C31.4639 29.4268 30.8174 30 30.099 30Z" fill="white"/>
<path d="M19.9704 30.0002H3.66376C2.87357 30.0002 2.22705 29.4269 2.22705 28.7263V11.9747C2.22705 11.4015 2.65806 10.9556 3.23274 10.7645L19.5394 6.3696C19.9704 6.24221 20.4014 6.30591 20.7606 6.56069C21.1197 6.81546 21.3352 7.19763 21.3352 7.57979V28.7263C21.4071 29.4269 20.7606 30.0002 19.9704 30.0002ZM5.10046 27.5161H18.5337V9.29954L5.10046 12.8664V27.5161Z" fill="white"/>
<path d="M32.3259 30.0002H1.43671C0.646517 30.0002 0 29.4269 0 28.7263C0 28.0256 0.646517 27.4524 1.43671 27.4524H32.3977C33.1879 27.4524 33.8344 28.0256 33.8344 28.7263C33.8344 29.4269 33.1161 30.0002 32.3259 30.0002Z" fill="white"/>
<path d="M11.853 30.0001C11.0628 30.0001 10.4163 29.4269 10.4163 28.7263V22.8027C10.4163 22.1021 11.0628 21.5288 11.853 21.5288C12.6432 21.5288 13.2897 22.1021 13.2897 22.8027V28.7263C13.2178 29.4269 12.5713 30.0001 11.853 30.0001Z" fill="white"/>
</svg>
